<?xml version="1.0" encoding="UTF-8" standalone="no"?>
<svg
   version="1.2"
   viewBox="0.00 0.00 64.00 64.00"
   id="svg41"
   sodipodi:docname="logo.svg"
   inkscape:version="1.4 (e7c3feb1, 2024-10-09)"
   xmlns:inkscape="http://www.inkscape.org/namespaces/inkscape"
   xmlns:sodipodi="http://sodipodi.sourceforge.net/DTD/sodipodi-0.dtd"
   xmlns="http://www.w3.org/2000/svg"
   xmlns:svg="http://www.w3.org/2000/svg">
  <defs
     id="defs41" />
  <sodipodi:namedview
     id="namedview41"
     pagecolor="#ffffff"
     bordercolor="#000000"
     borderopacity="0.25"
     inkscape:showpageshadow="2"
     inkscape:pageopacity="0.0"
     inkscape:pagecheckerboard="0"
     inkscape:deskcolor="#d1d1d1"
     inkscape:zoom="5.5030723"
     inkscape:cx="107.03112"
     inkscape:cy="31.073552"
     inkscape:window-width="3440"
     inkscape:window-height="1323"
     inkscape:window-x="1440"
     inkscape:window-y="25"
     inkscape:window-maximized="1"
     inkscape:current-layer="svg41"
     showgrid="false" />
  <path
     fill="#2d9acf"
     d="m 48.844256,9.4666369 c -0.91,2.7500001 -2.084851,5.8285121 -2.764851,8.5185121 -2.446667,9.62 -5.278482,19.203035 -8.585149,28.569702 -0.68,1.92 -0.818482,4.204851 -0.505149,6.764851 L 34.83,59.19 c -0.09323,0.289681 -0.377552,0.473653 -0.68,0.44 l -6.36,-0.7 c -0.626219,-0.06958 -1.179266,-0.443263 -1.48,-1 l -2.938809,-4.81 c 2.173333,-4.106667 3.697886,-8.513036 4.304553,-13.039702 1.78,-0.166667 3.280923,-0.936965 4.054256,-2.490298 0.23635,-0.465358 -0.343014,-0.92717 -0.69,-0.55 -0.08,0.08667 -0.126667,0.22 -0.14,0.4 -0.02098,0.282509 -0.256714,0.500778 -0.54,0.5 -0.313333,0 -0.59,-0.07 -0.83,-0.21 l 0.93,-0.7 c 0.275061,-0.207734 0.206145,-0.638458 -0.12,-0.75 l -2.01,-0.66 c -0.188435,-0.05819 -0.356313,-0.177104 -0.48,-0.34 -2.346667,-2.96 -2.603333,-6.11 -0.77,-9.45 1.83,-3.32 5.23,-5.34 8.77,-2.86 -0.06667,0.626667 0.106667,1.226667 0.52,1.8 0.486442,0.69329 1.575516,0.366568 1.6,-0.48 0.106667,-2.82 -0.826667,-5.326667 -2.8,-7.52 -0.228088,-0.260406 -0.527917,-0.445184 -0.86,-0.53 l -5.529107,-1.489702 c 0.78,-2.273333 1.608184,-4.752738 2.394851,-7.079405 0.333333,-0.9866667 1.209405,-1.4197024 2.269405,-1.1197024 2.433333,-2.06 4.901518,-2.4345239 7.314851,-1.8411906 1.993333,0.4866667 3.106667,1.96 3.34,4.42 0.297817,0.160814 0.269288,0.2583957 0.57,0.280893 z"
     id="path29"
     style="display:inline"
     inkscape:label="path29"
     sodipodi:nodetypes="cccccccccccccccccccccccccccccccc" />
  <path
     fill="#163860"
     d="M 43.953142,4.8511497 C 44.702696,6.1441355 44.469118,8.6964693 45.97,8.69 c 0.2,-0.12 2.115358,-0.8948656 3.355358,0.1184674 0.288124,0.2787687 2.356728,2.0747396 3.369449,2.3988096 0.504747,0.238085 0.70407,2.646399 0.704851,3.062856 L 54.05,16.77 c 0.183545,0.705532 0.590984,1.32 1.32,1.32 h 1.44 c 0.35227,0.0118 0.679367,0.193937 0.88,0.49 1.313333,1.893333 2.156667,3.85 2.53,5.87 0.220552,1.232561 -0.468752,2.447249 -1.64,2.89 l -1.44,0.54 c -1.430855,0.537488 -1.884936,2.33833 -0.88,3.49 l 3.02,3.48 c 0.606437,0.693569 0.797013,1.657884 0.5,2.53 L 57.720581,43.431246 57.51,44.05 c -1.126667,0.42 -2.123813,0.794411 -2.537146,0.101078 -0.532993,-0.05162 0.08977,-1.001895 0.270589,-1.515284 L 57.47,35.88 c 0.116684,-0.356428 0.02836,-0.74814 -0.23,-1.02 l -2.53,-2.72 c -1.164887,-1.251606 -0.967799,-3.241255 0.42,-4.24 l 2.31,-1.66 c 0.402093,-0.289724 0.561791,-0.809763 0.39,-1.27 L 55.65,19.16 C 55.430384,18.573362 54.775477,18.277309 54.19,18.5 l -1.16,0.43 c -0.456781,0.174663 -0.947324,-0.160972 -0.95,-0.65 V 13.17 C 52.079272,12.795495 51.874638,12.455725 51.55,12.29 50.463333,11.73 49.486667,10.953333 48.62,9.96 L 44.67,9.68 C 44.369288,9.6575027 44.128711,9.4253675 44.1,9.13 43.866667,6.67 42.753333,5.1966667 40.76,4.71 38.346667,4.1166667 35.923333,4.85 33.49,6.91 L 33.14,5.6 C 33.045441,5.2524032 32.730228,5.0108764 32.37,5.01 h -5.49 c -0.246599,2.902e-4 -0.475282,0.133689 -0.6,0.35 L 23.89,9.48 C 23.707926,9.7949435 23.261177,9.8162173 23.05,9.52 L 21.99,8.04 C 21.780156,7.7558997 21.345694,7.7880821 21.18,8.1 c -0.493333,0.9466667 -1.66,1.8666667 -3.5,2.76 -0.525707,0.256198 -0.85946,0.791755 -0.86,1.38 v 1.5 c 4.93e-4,0.392606 -0.199338,0.758335 -0.53,0.97 -1.12,0.713333 -2.11,1.163333 -2.97,1.35 -0.29908,0.06339 -0.557432,0.252608 -0.71,0.52 L 9.42,22.09 C 9.340463,22.218721 9.1450334,22.187201 9.11,22.04 8.9766667,21.206667 8.7733333,20.976667 8.5,21.35 l 2.62,-5.55 c 0.111064,-0.247803 0.291997,-0.456572 0.52,-0.6 1.36,-0.88 2.553333,-1.386667 3.58,-1.52 0.371072,-0.04608 0.64738,-0.361246 0.64,-0.73 -0.03333,-2.9666667 1.703333,-4.91 5.21,-5.83 0.64,-0.1666667 1.203333,0.033333 1.69,0.6 0.304158,0.3421279 0.857018,0.2623884 1.04,-0.15 0,0 0.934324,-2.556184 2.04886,-3.3252824 0.768917,-0.5305999 8.590895,-0.3088742 8.005421,1.2205847 0.429416,-1.1702192 6.825374,-1.9078567 8.615215,-1.4784487 0.568131,0.1363025 1.044858,0.5032585 1.483646,0.8642961 z"
     id="path26"
     sodipodi:nodetypes="cccccsscccccccccccccccccccccccccccccccccccccccccccccccccccccscsc"
     style="display:inline" />
  <path
     fill="#5eaad6"
     d="m 33.49,6.91 c -1.06,-0.3 -1.756667,0.043333 -2.09,1.03 -0.786667,2.326667 -1.57,4.626667 -2.35,6.9 -5.78,-0.19 -9.75,4.37 -11.13,9.48 -1.07,3.93 -1.71,7.24 0.6,10.65 2.246667,3.333333 5.373333,5.066667 9.38,5.2 -0.606667,4.526667 -1.996667,8.843333 -4.17,12.95 -1.406667,0.04667 -2.726667,0.93 -3.96,2.65 -0.179192,0.248389 -0.506199,0.33643 -0.78,0.21 C 16.283333,54.74 14.326667,53.163333 13.12,51.25 14.28,49.3 14.5,46.67 11.74,46.12 9.0733333,45.593333 7.8266667,43.63 8,40.23 8.06,39.036667 8.5466667,37.253333 9.46,34.88 9.6064221,34.513205 9.3585652,34.10672 8.96,34.06 L 8.63,34.03 C 8.3390712,33.99796 8.0781633,33.836273 7.92,33.59 6.3666667,31.203333 6.4566667,28.87 8.19,26.59 8.223268,26.55009 8.260086,26.51327 8.3,26.48 l 3.24,-2.84 c 0.148333,-0.132758 0.09855,-0.376149 -0.09,-0.44 l -0.73,-0.24 c -0.05264,-0.02181 -0.115296,-9.2e-4 -0.15,0.05 -0.9533333,1.526667 -2.23,2.42 -3.83,2.68 1.8866667,-1.76 2.4733333,-3.206667 1.76,-4.34 0.2733333,-0.373333 0.4766667,-0.143333 0.61,0.69 0.035033,0.147201 0.230463,0.178721 0.31,0.05 l 3.19,-5.51 c 0.152568,-0.267392 0.41092,-0.456607 0.71,-0.52 0.86,-0.186667 1.85,-0.636667 2.97,-1.35 0.330662,-0.211665 0.530493,-0.577394 0.53,-0.97 v -1.5 c 5.4e-4,-0.588245 0.334293,-1.123802 0.86,-1.38 1.84,-0.8933333 3.006667,-1.8133333 3.5,-2.76 0.165694,-0.3119179 0.600156,-0.3441003 0.81,-0.06 l 1.06,1.48 c 0.211177,0.2962173 0.657926,0.2749435 0.84,-0.04 l 2.39,-4.12 c 0.124718,-0.216311 0.353401,-0.3497098 0.6,-0.35 h 5.49 c 0.360228,8.764e-4 0.675441,0.2424032 0.77,0.59 z"
     id="path30"
     sodipodi:nodetypes="ccccccccccccccccccccccccccccccccccccccccc"
     style="display:inline" />
  <path
     fill="#1891ca"
     d="m 57.51,44.05 q -1.29,1.54 -3.58,0.64 -1.19,-0.88 -2.77,-0.57 c -3.04,0.6 -2.23,4.12 -1.26,5.96 a 1.13,1.12 -32 0 1 -0.34,1.45 l -6.2,4.45 a 0.72,0.71 -38 0 1 -0.95,-0.11 q -2.49,-2.84 -5.69,-2.64 -0.47,-3.84 0.55,-6.72 4.96,-14.05 8.63,-28.48 c 0.68,-2.69 1.81,-5.32 2.72,-8.07 q 1.3,1.49 2.93,2.33 a 1,0.97 -76.9 0 1 0.53,0.88 v 5.11 a 0.7,0.7 0 0 0 0.95,0.65 l 1.16,-0.43 a 1.13,1.13 0 0 1 1.46,0.66 l 2.18,5.81 a 1.1,1.09 -28.1 0 1 -0.39,1.27 l -2.31,1.66 a 2.84,2.84 0 0 0 -0.42,4.24 l 2.53,2.72 a 1.02,1.02 0 0 1 0.23,1.02 l -2.34,7.1 a 0.84,0.81 -52 0 0 0.07,0.66 q 0.62,1.04 2.31,0.41 z"
     id="path32"
     style="display:inline" />
  <path
     fill="#154175"
     d="M 35.218185,15.902671 C 38.123093,18.417237 38.076667,21.47 37.97,24.29 c -0.02448,0.846568 -1.113558,1.17329 -1.6,0.48 -0.413333,-0.573333 -0.586667,-1.173333 -0.52,-1.8 0.68,-3.23 -1.86,-7.58 -5.9,-5.48 -7.74514,3.291533 -12.506842,11.619813 -7.48,19.57 1.92,2.28 4.711013,2.069669 7.49768,0.236336 0.323727,-0.226197 0.736067,-0.741195 0.977681,-0.831149 0.697842,-0.259811 1.256638,-0.07276 0.920282,0.823255 -0.03247,0.08651 -0.07721,0.186506 -0.135643,0.301558 -0.773333,1.553333 -2.05,2.413333 -3.83,2.58 -4.006667,-0.133333 -7.133333,-1.866667 -9.38,-5.2 -2.31,-3.41 -3.288524,-6.342316 -2.218524,-10.272316 3.073674,-13.013738 15.56313,-11.482391 18.916709,-8.795013 z"
     id="path33"
     style="display:inline"
     sodipodi:nodetypes="cccccccssccccc" />
  <path
     fill="#163860"
     d="m 13.12,51.25 0.12,-0.48 C 13.16667,49.703333 12.837025,48.627955 11.235154,48.572577 8.4354298,49.272508 4.4859895,43.193889 6.63,38.62 7.0966667,37.626667 7.5366667,36.496667 7.95,35.23 7.9960086,35.092467 7.9858116,34.051759 6.92,34.73 6.7163716,34.870545 6.4351754,34.761191 6.38,34.52 5.6,31.313333 5.72,28.37 6.74,25.69 c 1.6,-0.26 2.8766667,-1.153333 3.83,-2.68 0.0347,-0.05092 0.09736,-0.07181 0.15,-0.05 l 0.73,0.24 c 0.188549,0.06385 0.238333,0.307242 0.09,0.44 L 8.3,26.48 c -0.039915,0.03327 -0.076732,0.07009 -0.11,0.11 -1.7333333,2.28 -1.8233333,4.613333 -0.27,7 0.1581633,0.246273 0.4190712,0.407962 0.71,0.44 l 0.33,0.03 c 0.3985652,0.04672 0.6464221,0.453205 0.5,0.82 -0.9133333,2.373333 -1.4,4.156667 -1.46,5.35 -0.1733333,3.4 1.0733333,5.363333 3.74,5.89 2.76,0.55 2.54,3.18 1.38,5.13 z"
     id="path35"
     sodipodi:nodetypes="ccccccccccccccccccccc"
     style="display:inline" />
  <path
     fill="#0b1c34"
     d="m 53.93,44.69 c -3.166667,0.673333 -3.896667,2.896667 -2.19,6.67 0.13505,0.289899 0.156448,0.621558 0.06,0.93 -0.2,0.62 -0.58,1.106667 -1.14,1.46 -2.231534,1.198442 -3.966175,3.139845 -5.96,4.75 -0.234391,0.193623 -0.575577,0.185093 -0.8,-0.02 L 42.16,56.9 c -0.913333,-1.106667 -2.053333,-1.69 -3.42,-1.75 -2.77,1.07 -2.41,2.86 -2.86,5.15 -0.05709,0.304093 -0.320623,0.525793 -0.63,0.53 l -8.23,0.09 C 26.594129,59.245884 22.908066,53.74582 20.654851,56.71 L 19.16,58.34 c -0.211427,0.23525 -0.551671,0.300839 -0.83,0.16 -1.446667,-0.72 -3.093333,-1.863333 -4.94,-3.43 -1.533333,-1.3 -1.583333,-2.733333 -0.15,-4.3 l -0.12,0.48 c 1.206667,1.913333 3.163333,3.49 5.87,4.73 0.273801,0.12643 0.600808,0.03839 0.78,-0.21 1.233333,-1.72 2.553333,-2.603333 3.96,-2.65 l 2.58,4.81 c 0.300734,0.556737 0.853781,0.930417 1.48,1 l 6.36,0.7 c 0.302448,0.03365 0.586768,-0.150319 0.68,-0.44 l 1.89,-5.96 c 2.133333,-0.133333 4.03,0.746667 5.69,2.64 0.238551,0.273788 0.648401,0.321244 0.95,0.11 l 6.2,-4.45 c 0.463589,-0.331647 0.609367,-0.953346 0.34,-1.45 -0.97,-1.84 -1.78,-5.36 1.26,-5.96 1.053333,-0.206667 1.976667,-0.01667 2.77,0.57 z"
     id="path36"
     style="display:inline"
     sodipodi:nodetypes="ccccccccccccccccccccccccccccccc" />
</svg>
